<?xml version="1.0" encoding="utf-8"?>
<!-- Generator: Adobe Illustrator 24.1.0, SVG Export Plug-In . SVG Version: 6.00 Build 0)  -->
<svg version="1.1" id="Layer_1" xmlns="http://www.w3.org/2000/svg" xmlns:xlink="http://www.w3.org/1999/xlink" x="0px" y="0px"
	 viewBox="0 0 1280 1024" style="enable-background:new 0 0 1280 1024;" xml:space="preserve">
<style type="text/css">
	.st0{fill:none;}
	.st1{fill:#72EFDD;}
	.st2{fill:#5E60CE;}
	.st3{opacity:0.2;fill:url(#New_Pattern);}
</style>
<pattern  width="87.5" height="154.3" patternUnits="userSpaceOnUse" id="New_Pattern" viewBox="4.2 -154.3 87.5 154.3" style="overflow:visible;">
	<g>
		<rect x="4.2" y="-154.3" class="st0" width="87.5" height="154.3"/>
		<g>
			<path class="st1" d="M101.5-17.9c-0.2-0.7-0.9-1-1.5-0.8c-3.3,0.6-4.8,0.8-7.7,1.1c-2.2,0.3-3.6,0.9-4,1.1
				c-0.8,0.3-0.8,0.5-0.7,1c0.1,0.9,0.8,2.1,1.5,2.7c0.1,0.1,0.2,0.2,0.4,0.2c0.9,0.3,2.5,0.2,5-0.2c3.5-0.6,5.5-1.2,6.4-1.8
				c0.1-0.1,0.2-0.2,0.3-0.3c0.5-0.6,0.7-1.6,0.6-2.7C101.6-17.6,101.6-17.8,101.5-17.9z"/>
			<path class="st1" d="M79.5-11.9c-0.4-0.6-1.2-0.6-1.8-0.2C75-10.2,73.7-9.4,71.1-8c-1.9,1.1-3,2.3-3.3,2.6
				c-0.6,0.6-0.5,0.7-0.2,1.2c0.5,0.7,1.6,1.6,2.4,1.9c0.1,0,0.3,0.1,0.4,0C71.4-2.3,72.9-3,75-4.4c3-1.9,4.6-3.3,5.2-4.1
				c0.1-0.1,0.1-0.2,0.2-0.3c0.2-0.8,0-1.8-0.5-2.7C79.7-11.6,79.6-11.8,79.5-11.9z"/>
		</g>
		<g>
			<path class="st1" d="M14-17.9c-0.2-0.7-0.9-1-1.5-0.8c-3.3,0.6-4.8,0.8-7.7,1.1c-2.2,0.3-3.6,0.9-4,1.1C0-16.2-0.1-16,0-15.5
				c0.1,0.9,0.8,2.1,1.5,2.7c0.1,0.1,0.2,0.2,0.4,0.2c0.9,0.3,2.5,0.2,5-0.2c3.5-0.6,5.5-1.2,6.4-1.8c0.1-0.1,0.2-0.2,0.3-0.3
				c0.5-0.6,0.7-1.6,0.6-2.7C14.1-17.6,14-17.8,14-17.9z"/>
			<path class="st2" d="M45.2-26.1c0,0.7-0.3,1.5-1,2.2c-1.3,1.3-3.4,1.4-9.8-1.8c-0.6-4.3,0.2-8.1,2-10.9c-2.5-2.3-5.3-2.5-6.5-1.3
				c-1.8,1.8-1.4,5.2,1.1,10.5l-0.1,0.1c-5.8-3.2-8.9-2.7-11-0.7c-2.4,2.4-2.7,6.4-1.4,7.7c0.4,0.4,1.1,0.7,1.7,0.7
				c0.2-0.7,0.4-1.2,1-1.8c1.3-1.3,3.4-1.3,9.4,1.5c1.1,3.7,0.6,8-1.6,10.9c0,0.8,0.3,1.3,0.8,1.8c1.3,1.3,3.9,1.4,5.4-0.1
				c1.9-1.9,1.8-5.1-1-10.8l0.1-0.1c6.5,3,9.2,2.6,11.8,0.1c2.2-2.2,2.3-6.1,0.7-7.7C46.3-26.1,45.7-26.2,45.2-26.1z"/>
		</g>
		<g>
			<path class="st1" d="M8.5-52.4c-0.7-0.1-1.2,0.4-1.4,1c-0.8,3.2-1.3,4.7-2.2,7.5c-0.7,2.1-0.7,3.7-0.7,4.1c0,0.8,0.1,0.9,0.6,1
				c0.9,0.2,2.2,0.2,3.1-0.2C8-39,8.1-39.1,8.2-39.2c0.6-0.7,1.3-2.2,1.9-4.6c0.9-3.5,1.2-5.5,1.1-6.5c0-0.1-0.1-0.2-0.1-0.4
				c-0.4-0.7-1.2-1.4-2.2-1.6C8.8-52.3,8.6-52.4,8.5-52.4z"/>
			<path class="st1" d="M57.8-95.1c-0.2-0.7-0.9-1-1.5-0.8c-3.3,0.6-4.8,0.8-7.7,1.1c-2.2,0.3-3.6,0.9-4,1.1c-0.8,0.3-0.8,0.5-0.7,1
				c0.1,0.9,0.8,2.1,1.5,2.7c0.1,0.1,0.2,0.2,0.4,0.2c0.9,0.3,2.5,0.2,5-0.2c3.5-0.6,5.5-1.2,6.4-1.8c0.1-0.1,0.2-0.2,0.3-0.3
				c0.5-0.6,0.7-1.6,0.6-2.7C57.8-94.8,57.8-94.9,57.8-95.1z"/>
			<path class="st1" d="M35.8-89c-0.4-0.6-1.2-0.6-1.8-0.2c-2.8,1.9-4.1,2.6-6.7,4.1c-1.9,1.1-3,2.3-3.3,2.6
				c-0.6,0.6-0.5,0.7-0.2,1.2c0.5,0.7,1.6,1.6,2.4,1.9c0.1,0,0.3,0.1,0.4,0c0.9-0.1,2.4-0.8,4.5-2.1c3-1.9,4.6-3.3,5.2-4.1
				c0.1-0.1,0.1-0.2,0.2-0.3c0.2-0.8,0-1.8-0.5-2.7C35.9-88.8,35.8-88.9,35.8-89z"/>
			<path class="st1" d="M16.9-73.4c-0.6-0.3-1.3,0.1-1.6,0.8c-1.4,3-2.2,4.4-3.6,6.9c-1.1,1.9-1.4,3.5-1.5,3.9
				c-0.2,0.8-0.1,0.9,0.4,1.1c0.8,0.4,2.2,0.6,3,0.4c0.1,0,0.3-0.1,0.4-0.2c0.8-0.5,1.7-1.9,2.8-4.2c1.6-3.2,2.2-5.2,2.3-6.2
				c0-0.1,0-0.3,0-0.4c-0.2-0.7-0.9-1.6-1.8-2C17.2-73.2,17.1-73.3,16.9-73.4z"/>
			<path class="st2" d="M89-103.3c0,0.7-0.3,1.5-1,2.2c-1.3,1.3-3.4,1.4-9.8-1.8c-0.6-4.3,0.2-8.1,2-10.9c-2.5-2.3-5.3-2.5-6.5-1.3
				c-1.8,1.8-1.4,5.2,1.1,10.5l-0.1,0.1c-5.8-3.2-8.9-2.7-11-0.7c-2.4,2.4-2.7,6.4-1.4,7.7c0.4,0.4,1.1,0.7,1.7,0.7
				c0.2-0.7,0.4-1.2,1-1.8c1.3-1.3,3.4-1.3,9.4,1.5c1.1,3.7,0.6,8-1.6,10.9c0,0.8,0.3,1.3,0.8,1.8c1.3,1.3,3.9,1.4,5.4-0.1
				c1.9-1.9,1.8-5.1-1-10.8l0.1-0.1c6.5,3,9.2,2.6,11.8,0.1c2.2-2.2,2.3-6.1,0.7-7.7C90.1-103.3,89.5-103.3,89-103.3z"/>
		</g>
		<g>
			<path class="st1" d="M52.3-129.6c-0.7-0.1-1.2,0.4-1.4,1c-0.8,3.2-1.3,4.7-2.2,7.5c-0.7,2.1-0.7,3.7-0.7,4.1c0,0.8,0.1,0.9,0.6,1
				c0.9,0.2,2.2,0.2,3.1-0.2c0.1-0.1,0.2-0.1,0.3-0.2c0.6-0.7,1.3-2.2,1.9-4.6c0.9-3.5,1.2-5.5,1.1-6.5c0-0.1-0.1-0.2-0.1-0.4
				c-0.4-0.7-1.2-1.4-2.2-1.6C52.5-129.5,52.4-129.5,52.3-129.6z"/>
			<path class="st1" d="M60.7-150.5c-0.6-0.3-1.3,0.1-1.6,0.8c-1.4,3-2.2,4.4-3.6,6.9c-1.1,1.9-1.4,3.5-1.5,3.9
				c-0.2,0.8-0.1,0.9,0.4,1.1c0.8,0.4,2.2,0.6,3,0.4c0.1,0,0.3-0.1,0.4-0.2c0.8-0.5,1.7-1.9,2.8-4.2c1.6-3.2,2.2-5.2,2.3-6.2
				c0-0.1,0-0.3,0-0.4c-0.2-0.7-0.9-1.6-1.8-2C61-150.4,60.8-150.5,60.7-150.5z"/>
		</g>
	</g>
</pattern>
<rect class="st3" width="1280" height="467"/>
</svg>
