<svg id="Layer_1" data-name="Layer 1" xmlns="http://www.w3.org/2000/svg" viewBox="0 0 368 136.93"><defs><style>.cls-1{fill:#5e60ce;}.cls-2{fill:#72efdd;}</style></defs><path class="cls-1" d="M102.44,61.2a9.86,9.86,0,0,1-4.18,8c-2.55,1.45-7.28,2.36-16.91,2.36H79.17A214.47,214.47,0,0,0,75.9,108.1c0,10.54,1.27,18.72,2.72,23.26-2,2-8.9,4.55-13.63,4.55-5.09,0-8-4.55-8-20.36,0-13.45,2.73-32,5.82-44.72A86.71,86.71,0,0,0,53,70.11a41.38,41.38,0,0,0-15.82,2.72A12.55,12.55,0,0,1,35,65.74C35,60.84,41.18,55,48.45,55,55.9,55,63,57.38,79.17,57.38c8.18,0,15.81-1.63,20.18-3.63A12,12,0,0,1,102.44,61.2Z" transform="translate(-35 -32.25)"/><path class="cls-1" d="M129.7,93.92c-4.9,0-10.72,8-10.72,17.81,0,5.64,1.82,9.27,1.82,14,0,3.82-6,9.27-12.18,9.27-4.73,0-8.91-5.82-8.91-12.91,0-6.72,2-14,2-24.35,0-6.91-1.09-9.64-3.64-9.64a16.68,16.68,0,0,0-5.81,1.28,5.25,5.25,0,0,1-1.64-3.64c0-4.36,7.27-10.18,15.45-10.18,8,0,12.73,5.09,10.91,20.36h.73c3.63-15.63,10-20.54,16-20.54,5.27,0,9.27,4.91,9.27,10.36,0,4-2.72,8.18-7.81,10.18A7.16,7.16,0,0,0,129.7,93.92Z" transform="translate(-35 -32.25)"/><path class="cls-1" d="M145.7,85.74c0-3.82,7.27-10.18,16.36-10.18,8.18,0,14.54,5.09,14.54,15.63,0,8.55-1.82,17.64-1.82,26,0,5.27,1.28,6.72,3.82,6.72a10.57,10.57,0,0,0,4.73-1.27,6.9,6.9,0,0,1,1.27,3.82c0,4-6.36,8.54-14,8.54-8.54,0-14.54-5.45-14.54-15.63,0-6.91,1.82-14.36,1.82-22.91,0-6.9-2-8.36-4.73-8.36a15.74,15.74,0,0,0-5.63,1.28A5.43,5.43,0,0,1,145.7,85.74Z" transform="translate(-35 -32.25)"/><path class="cls-1" d="M184.69,85.74c0-4.36,8.18-10.18,16.36-10.18,7.45,0,12,4.36,11.45,14.36h.55c4.18-9.45,11.09-14.36,19.08-14.36,10.18,0,19.27,9.82,19.27,25.81,0,20.91-12.54,33.63-25.27,33.63-7.63,0-12.36-2.91-15.45-7.82-.18,2.19-.54,4.91-.54,7.82-.18,8.72,1.82,17.63,1.82,22.72,0,4.55-6,11.45-11.82,11.45-5.63,0-8.72-6.18-8.72-12.9,0-6.18,1.27-17.27,3.45-27.63.73-8.18,1.27-24.18,1.27-31.63,0-6.36-1.27-8.91-4-8.91a15.74,15.74,0,0,0-5.63,1.28A5.43,5.43,0,0,1,184.69,85.74Zm27.45,32.17a10.83,10.83,0,0,0,9.09,4.73c6,0,10.54-6.36,10.54-19.09,0-9.27-3.09-14.17-7.45-14.17-4.18,0-8.55,4-11.46,11.81Z" transform="translate(-35 -32.25)"/><path class="cls-1" d="M292.12,124.46c0,5.09-5.64,10.54-14,10.54-10,0-18.36-6-18.36-25.09,0-22.72,3.27-44.17,6.18-54.34,2-7.09,3.46-9.27,7.46-9.27,6.18,0,13.45,5.45,13.45,10.17,0,3.09-2.55,10.73-6.73,19.09-1.45,5.82-2.36,17.63-2.36,30.54,0,14,2.36,17.08,6.18,17.08a8.87,8.87,0,0,0,6.18-2.54A4.72,4.72,0,0,1,292.12,124.46Z" transform="translate(-35 -32.25)"/><path class="cls-1" d="M345.93,121.73c0,5.45-9.28,13.27-22.54,13.27-17.27,0-29.09-10.18-29.09-27.81C294.3,90.1,307.93,75,325.57,75c12.72,0,20.9,8,20.9,18.55,0,10.72-8,18.17-19.27,18.17a28.13,28.13,0,0,1-12.9-3.27c.72,9.63,5.63,14,14.36,14a22.14,22.14,0,0,0,14.72-5.27A5.12,5.12,0,0,1,345.93,121.73Zm-25.09-18.54c6.18,0,9.09-3.82,9.09-9.45,0-5.09-2.73-8-6.18-8-4.91,0-9.09,5.82-9.63,16.54A23.79,23.79,0,0,0,320.84,103.19Z" transform="translate(-35 -32.25)"/><path class="cls-1" d="M389.73,93.92c-4.91,0-10.72,8-10.72,17.81,0,5.64,1.82,9.27,1.82,14,0,3.82-6,9.27-12.18,9.27-4.73,0-8.91-5.82-8.91-12.91,0-6.72,2-14,2-24.35,0-6.91-1.09-9.64-3.64-9.64a16.68,16.68,0,0,0-5.81,1.28,5.25,5.25,0,0,1-1.64-3.64c0-4.36,7.27-10.18,15.45-10.18,8,0,12.72,5.09,10.91,20.36h.73c3.63-15.63,10-20.54,16-20.54,5.27,0,9.27,4.91,9.27,10.36,0,4-2.72,8.18-7.81,10.18A7.16,7.16,0,0,0,389.73,93.92Z" transform="translate(-35 -32.25)"/><path class="cls-2" d="M87.82,42.91a3.6,3.6,0,0,1,.4,2.71,1.29,1.29,0,0,1-.17.33c-.61.81-2.27,2.08-5.37,3.86C80.47,51.07,79,51.67,78,51.7a.93.93,0,0,1-.4-.06,5.33,5.33,0,0,1-2.31-2c-.28-.5-.32-.62.28-1.18A12.63,12.63,0,0,1,79,46c2.63-1.32,4-2,6.86-3.72a1.24,1.24,0,0,1,1.74.27C87.67,42.66,87.75,42.78,87.82,42.91Z" transform="translate(-35 -32.25)"/><path class="cls-2" d="M152.37,47.58a3.57,3.57,0,0,1-2.29,1.49.92.92,0,0,1-.37,0c-1-.21-2.84-1.17-5.76-3.24-2.07-1.47-3.25-2.58-3.67-3.42a.88.88,0,0,1-.11-.39,5.29,5.29,0,0,1,.85-2.95c.33-.46.43-.55,1.19-.25a12.87,12.87,0,0,1,3.65,2.07c2.3,1.83,3.49,2.78,6.25,4.65a1.25,1.25,0,0,1,.5,1.69A3.75,3.75,0,0,1,152.37,47.58Z" transform="translate(-35 -32.25)"/><path class="cls-2" d="M132.7,36.35a3.58,3.58,0,0,1-1.52,2.27,1.07,1.07,0,0,1-.35.14c-1,.19-3.07,0-6.56-.74-2.49-.54-4-1.09-4.72-1.7a1,1,0,0,1-.26-.32,5.32,5.32,0,0,1-.36-3c.12-.55.17-.67,1-.69a13.08,13.08,0,0,1,4.16.47c2.84.79,4.31,1.2,7.58,1.84a1.24,1.24,0,0,1,1.12,1.36C132.76,36.06,132.73,36.2,132.7,36.35Z" transform="translate(-35 -32.25)"/><path class="cls-2" d="M108.53,34.09a3.6,3.6,0,0,1-.13,2.73,1.33,1.33,0,0,1-.23.3c-.75.67-2.62,1.6-6,2.75-2.41.82-4,1.12-4.93,1a1.09,1.09,0,0,1-.38-.14A5.28,5.28,0,0,1,95,38.28c-.19-.54-.2-.67.49-1.11a13,13,0,0,1,3.81-1.74c2.84-.79,4.31-1.2,7.44-2.33a1.25,1.25,0,0,1,1.66.59C108.43,33.81,108.48,34,108.53,34.09Z" transform="translate(-35 -32.25)"/><path class="cls-1" d="M181.24,65c0,2.25-2.79,5-5.9,5-3.65,0-5.82-1.71-8.31-8.39h-.15c-2,6.06-4.19,8.39-6.91,8.39a4,4,0,0,1-3.88-3.73,2.35,2.35,0,0,1,.69-1.86,12.67,12.67,0,0,0,8.86-6.6c-2.25-6.29-3.73-7.76-5.59-7.76a3.31,3.31,0,0,0-1.94.54,2.8,2.8,0,0,1-.7-1.71c0-1.94,3-4.5,6.44-4.5,3,0,5.51,1.86,7.3,8.23h.15c2-5.59,4.2-8.23,6.68-8.23,1.71,0,3.58,2.17,3.73,5.51a16,16,0,0,0-9.16,6.29c2.25,6.76,3.88,8.15,5.66,8.15a3.35,3.35,0,0,0,2.26-.85A1.89,1.89,0,0,1,181.24,65Z" transform="translate(-35 -32.25)"/></svg>